<mxfile host="app.diagrams.net" modified="2023-10-11T02:43:06.197Z" agent="Mozilla/5.0 (Windows NT 10.0; Win64; x64) AppleWebKit/537.36 (KHTML, like Gecko) Chrome/117.0.0.0 Safari/537.36" etag="5j0qKxtNcA21LflibJeu" version="22.0.4" type="device">
  <diagram name="Página-1" id="G70mQapNwYzaGsmVYV_h">
    <mxGraphModel dx="1105" dy="625" grid="1" gridSize="10" guides="1" tooltips="1" connect="1" arrows="1" fold="1" page="1" pageScale="1" pageWidth="827" pageHeight="1169" math="0" shadow="0">
      <root>
        <mxCell id="0" />
        <mxCell id="1" parent="0" />
        <mxCell id="RBtM4C8N0etjiQWY5GB9-4" value="Sistema de gerenciamento de despesas" style="shape=umlLifeline;perimeter=lifelinePerimeter;whiteSpace=wrap;html=1;container=1;dropTarget=0;collapsible=0;recursiveResize=0;outlineConnect=0;portConstraint=eastwest;newEdgeStyle={&quot;curved&quot;:0,&quot;rounded&quot;:0};fillColor=#ffe6cc;strokeColor=#d79b00;size=60;" vertex="1" parent="1">
          <mxGeometry x="330" y="80" width="226" height="400" as="geometry" />
        </mxCell>
        <mxCell id="RBtM4C8N0etjiQWY5GB9-19" value="" style="html=1;points=[[0,0,0,0,5],[0,1,0,0,-5],[1,0,0,0,5],[1,1,0,0,-5]];perimeter=orthogonalPerimeter;outlineConnect=0;targetShapes=umlLifeline;portConstraint=eastwest;newEdgeStyle={&quot;curved&quot;:0,&quot;rounded&quot;:0};fillColor=#0050ef;fontColor=#ffffff;strokeColor=#001DBC;" vertex="1" parent="RBtM4C8N0etjiQWY5GB9-4">
          <mxGeometry x="108" y="90" width="10" height="280" as="geometry" />
        </mxCell>
        <mxCell id="RBtM4C8N0etjiQWY5GB9-3" value="Usuário" style="shape=umlLifeline;perimeter=lifelinePerimeter;whiteSpace=wrap;html=1;container=1;dropTarget=0;collapsible=0;recursiveResize=0;outlineConnect=0;portConstraint=eastwest;newEdgeStyle={&quot;curved&quot;:0,&quot;rounded&quot;:0};direction=east;fillColor=#ffe6cc;strokeColor=#d79b00;perimeterSpacing=1;flipV=0;size=60;" vertex="1" parent="1">
          <mxGeometry x="100" y="80" width="200" height="400" as="geometry" />
        </mxCell>
        <mxCell id="RBtM4C8N0etjiQWY5GB9-17" value="" style="html=1;points=[[0,0,0,0,5],[0,1,0,0,-5],[1,0,0,0,5],[1,1,0,0,-5]];perimeter=orthogonalPerimeter;outlineConnect=0;targetShapes=umlLifeline;portConstraint=eastwest;newEdgeStyle={&quot;curved&quot;:0,&quot;rounded&quot;:0};fillColor=#0050ef;fontColor=#ffffff;strokeColor=#001DBC;" vertex="1" parent="RBtM4C8N0etjiQWY5GB9-3">
          <mxGeometry x="95" y="90" width="10" height="280" as="geometry" />
        </mxCell>
        <mxCell id="RBtM4C8N0etjiQWY5GB9-16" value="Gerenciamento de cartões" style="shape=umlLifeline;perimeter=lifelinePerimeter;whiteSpace=wrap;html=1;container=1;dropTarget=0;collapsible=0;recursiveResize=0;outlineConnect=0;portConstraint=eastwest;newEdgeStyle={&quot;curved&quot;:0,&quot;rounded&quot;:0};size=60;fillColor=#ffe6cc;strokeColor=#d79b00;" vertex="1" parent="1">
          <mxGeometry x="590" y="80" width="220" height="400" as="geometry" />
        </mxCell>
        <mxCell id="RBtM4C8N0etjiQWY5GB9-21" value="" style="html=1;points=[[0,0,0,0,5],[0,1,0,0,-5],[1,0,0,0,5],[1,1,0,0,-5]];perimeter=orthogonalPerimeter;outlineConnect=0;targetShapes=umlLifeline;portConstraint=eastwest;newEdgeStyle={&quot;curved&quot;:0,&quot;rounded&quot;:0};fillColor=#0050ef;fontColor=#ffffff;strokeColor=#001DBC;" vertex="1" parent="RBtM4C8N0etjiQWY5GB9-16">
          <mxGeometry x="105" y="100" width="10" height="150" as="geometry" />
        </mxCell>
        <mxCell id="RBtM4C8N0etjiQWY5GB9-33" value="" style="html=1;points=[[0,0,0,0,5],[0,1,0,0,-5],[1,0,0,0,5],[1,1,0,0,-5]];perimeter=orthogonalPerimeter;outlineConnect=0;targetShapes=umlLifeline;portConstraint=eastwest;newEdgeStyle={&quot;curved&quot;:0,&quot;rounded&quot;:0};fillColor=#0050ef;fontColor=#ffffff;strokeColor=#001DBC;" vertex="1" parent="RBtM4C8N0etjiQWY5GB9-16">
          <mxGeometry x="105" y="270" width="10" height="60" as="geometry" />
        </mxCell>
        <mxCell id="RBtM4C8N0etjiQWY5GB9-24" value="alt" style="shape=umlFrame;whiteSpace=wrap;html=1;pointerEvents=0;fillColor=#a20025;strokeColor=#6F0000;fontColor=#ffffff;gradientColor=none;swimlaneFillColor=none;strokeWidth=1.5;" vertex="1" parent="1">
          <mxGeometry x="390" y="200" width="335" height="140" as="geometry" />
        </mxCell>
        <mxCell id="RBtM4C8N0etjiQWY5GB9-26" value="Inicia adição de despesa" style="html=1;verticalAlign=bottom;endArrow=block;curved=0;rounded=0;" edge="1" parent="1">
          <mxGeometry width="80" relative="1" as="geometry">
            <mxPoint x="205" y="170" as="sourcePoint" />
            <mxPoint x="442.5" y="170" as="targetPoint" />
          </mxGeometry>
        </mxCell>
        <mxCell id="RBtM4C8N0etjiQWY5GB9-27" value="Recebe detalhes da despesa e verifica cartão" style="html=1;verticalAlign=bottom;endArrow=block;curved=0;rounded=0;entryX=0;entryY=0;entryDx=0;entryDy=5;entryPerimeter=0;" edge="1" parent="1" source="RBtM4C8N0etjiQWY5GB9-19" target="RBtM4C8N0etjiQWY5GB9-21">
          <mxGeometry width="80" relative="1" as="geometry">
            <mxPoint x="480" y="180" as="sourcePoint" />
            <mxPoint x="570" y="180" as="targetPoint" />
          </mxGeometry>
        </mxCell>
        <mxCell id="RBtM4C8N0etjiQWY5GB9-28" value="Cartão de crédito" style="html=1;verticalAlign=bottom;endArrow=block;curved=0;rounded=0;" edge="1" parent="1">
          <mxGeometry width="80" relative="1" as="geometry">
            <mxPoint x="450" y="220" as="sourcePoint" />
            <mxPoint x="695" y="220" as="targetPoint" />
          </mxGeometry>
        </mxCell>
        <mxCell id="RBtM4C8N0etjiQWY5GB9-29" value="Resultado se ultrapassou limite ou dia" style="html=1;verticalAlign=bottom;endArrow=open;dashed=1;endSize=8;curved=0;rounded=0;entryX=1.2;entryY=0.286;entryDx=0;entryDy=0;entryPerimeter=0;" edge="1" parent="1" source="RBtM4C8N0etjiQWY5GB9-21" target="RBtM4C8N0etjiQWY5GB9-19">
          <mxGeometry relative="1" as="geometry">
            <mxPoint x="610" y="250" as="sourcePoint" />
            <mxPoint x="530" y="250" as="targetPoint" />
          </mxGeometry>
        </mxCell>
        <mxCell id="RBtM4C8N0etjiQWY5GB9-30" value="Cartão de débito" style="html=1;verticalAlign=bottom;endArrow=block;curved=0;rounded=0;" edge="1" parent="1" target="RBtM4C8N0etjiQWY5GB9-21">
          <mxGeometry width="80" relative="1" as="geometry">
            <mxPoint x="450" y="290" as="sourcePoint" />
            <mxPoint x="530" y="290" as="targetPoint" />
          </mxGeometry>
        </mxCell>
        <mxCell id="RBtM4C8N0etjiQWY5GB9-32" value="Resultado se ultrapassou o saldo" style="html=1;verticalAlign=bottom;endArrow=open;dashed=1;endSize=8;curved=0;rounded=0;" edge="1" parent="1" target="RBtM4C8N0etjiQWY5GB9-19">
          <mxGeometry relative="1" as="geometry">
            <mxPoint x="690" y="320" as="sourcePoint" />
            <mxPoint x="610" y="320" as="targetPoint" />
          </mxGeometry>
        </mxCell>
        <mxCell id="RBtM4C8N0etjiQWY5GB9-34" value="Valida, registra e atualiza os dados" style="html=1;verticalAlign=bottom;endArrow=block;curved=0;rounded=0;" edge="1" parent="1" target="RBtM4C8N0etjiQWY5GB9-33">
          <mxGeometry width="80" relative="1" as="geometry">
            <mxPoint x="450" y="370" as="sourcePoint" />
            <mxPoint x="690" y="370" as="targetPoint" />
          </mxGeometry>
        </mxCell>
        <mxCell id="RBtM4C8N0etjiQWY5GB9-35" value="" style="html=1;verticalAlign=bottom;endArrow=open;dashed=1;endSize=8;curved=0;rounded=0;" edge="1" parent="1" target="RBtM4C8N0etjiQWY5GB9-19">
          <mxGeometry relative="1" as="geometry">
            <mxPoint x="690" y="400" as="sourcePoint" />
            <mxPoint x="610" y="400" as="targetPoint" />
          </mxGeometry>
        </mxCell>
        <mxCell id="RBtM4C8N0etjiQWY5GB9-36" value="" style="html=1;verticalAlign=bottom;endArrow=open;dashed=1;endSize=8;curved=0;rounded=0;" edge="1" parent="1">
          <mxGeometry relative="1" as="geometry">
            <mxPoint x="438" y="420" as="sourcePoint" />
            <mxPoint x="205" y="420" as="targetPoint" />
            <Array as="points" />
          </mxGeometry>
        </mxCell>
        <mxCell id="RBtM4C8N0etjiQWY5GB9-37" value="Resultado se a adição foi possível ou não" style="edgeLabel;html=1;align=center;verticalAlign=middle;resizable=0;points=[];" vertex="1" connectable="0" parent="RBtM4C8N0etjiQWY5GB9-36">
          <mxGeometry x="0.0148" y="-8" relative="1" as="geometry">
            <mxPoint as="offset" />
          </mxGeometry>
        </mxCell>
      </root>
    </mxGraphModel>
  </diagram>
</mxfile>
